<svg width="32" height="32" xmlns="http://www.w3.org/2000/svg">

 <g>
  <title>background</title>
  <rect fill="none" id="canvas_background" height="402" width="582" y="-1" x="-1"/>
 </g>
 <g>
  <title>Layer 1</title>
  <path transform="rotate(-0.8732264637947083 15.809930801391529,14.676219940185526) " fill="#ffffff" id="svg_1" d="m20.4,9.2l-0.3,2.3c0,0.2 -0.2,0.4 -0.4,0.4l-4.2,0.1c-0.5,0 -0.8,0.3 -0.9,0.8c-0.1,0.6 0.4,1 0.9,1l3.8,-0.1c0.3,0 0.5,0.2 0.5,0.5l-0.4,2.8c0,0.2 -0.2,0.4 -0.4,0.4l-3.4,0.1c-0.3,0 -0.5,0.1 -0.7,0.3l-2.2,2.6c-0.4,0.5 -1.2,0.2 -1.2,-0.4l-0.3,-10.3c0,-0.5 0.4,-0.9 0.8,-0.9l8,-0.1c0.2,0 0.5,0.3 0.4,0.5z" class="st0"/>
  <path fill="#ffffff" id="svg_2" d="m16,2c-7.7,0 -14,6.3 -14,14c0,7.7 6.3,14 14,14c7.7,0 14,-6.3 14,-14c0,-7.7 -6.3,-14 -14,-14zm6.3,7.2l-1.2,8.4c-0.1,1 -0.9,1.7 -1.9,1.7l-2.7,0.1c-0.3,0 -0.6,0.1 -0.8,0.4l-4.4,5.1c-0.2,0.2 -0.4,0.3 -0.7,0.3c-0.1,0 -0.3,0 -0.4,-0.1c-0.3,-0.1 -0.5,-0.5 -0.5,-0.8l-0.3,-14.9c0,-1.3 1,-2.3 2.2,-2.3l8.6,-0.2c0.6,0 1.1,0.2 1.5,0.7c0.5,0.4 0.7,1 0.6,1.6z" class="st0"/>
 </g>
</svg>